<?xml version="1.0" standalone="no"?>
<!DOCTYPE svg PUBLIC "-//W3C//DTD SVG 20010904//EN"
 "http://www.w3.org/TR/2001/REC-SVG-20010904/DTD/svg10.dtd">
<svg version="1.0" xmlns="http://www.w3.org/2000/svg"
 width="260.000000pt" height="260.000000pt" viewBox="0 0 260.000000 260.000000"
 preserveAspectRatio="xMidYMid meet">
<metadata>
Created by potrace 1.11, written by Peter Selinger 2001-2013
</metadata>
<g transform="translate(0.000000,260.000000) scale(0.100000,-0.100000)"
fill="#000000" stroke="none">
<path d="M1246 2360 c-14 -18 -23 -37 -20 -42 4 -6 2 -8 -4 -4 -30 18 -32
-119 -2 -176 l21 -40 -28 20 c-26 18 -86 42 -104 42 -5 0 -9 -14 -9 -31 0 -24
11 -42 49 -80 50 -50 83 -65 126 -57 16 4 25 1 25 -8 0 -7 7 -14 15 -16 11 -2
6 -13 -20 -42 -28 -32 -35 -36 -35 -20 -1 23 -23 54 -39 54 -6 0 -14 7 -17 15
-4 8 -12 15 -20 15 -8 0 -14 5 -14 11 0 6 -6 9 -14 6 -8 -3 -17 1 -20 9 -3 9
-10 12 -16 9 -5 -3 -10 -2 -10 3 0 14 -73 32 -132 32 l-55 0 8 -47 c5 -26 15
-50 22 -55 6 -4 8 -8 2 -8 -15 0 64 -70 80 -70 8 0 34 -13 58 -30 61 -41 96
-53 140 -46 l37 6 0 -52 c0 -29 -4 -48 -8 -43 -27 38 -199 87 -292 84 -44 -2
-120 -21 -138 -35 -6 -4 21 -49 42 -69 l21 -20 -38 -3 c-38 -3 -49 -18 -22
-28 8 -4 15 -13 15 -21 0 -41 98 -123 148 -123 11 0 22 -5 24 -11 5 -15 163
-68 204 -68 16 -1 35 4 42 11 9 9 12 -3 12 -55 l0 -66 -24 24 c-13 13 -37 27
-53 31 -15 3 -48 15 -72 26 -86 39 -254 61 -290 39 -11 -7 -9 -16 10 -50 12
-22 29 -41 36 -41 7 0 13 -6 13 -14 0 -17 86 -59 160 -79 130 -35 169 -41 195
-29 24 11 25 10 24 -21 -2 -55 -16 -145 -18 -110 -1 35 -29 62 -83 83 -18 6
-58 23 -89 36 -79 33 -259 42 -259 13 0 -27 89 -102 159 -135 142 -67 198 -80
261 -63 12 3 14 -7 12 -53 -2 -31 -7 -70 -12 -85 l-8 -28 -1 32 c-1 49 -10 62
-55 85 -54 28 -173 68 -180 61 -3 -3 -11 -1 -18 5 -14 11 -103 11 -114 -1 -11
-11 28 -76 61 -101 17 -12 68 -41 114 -64 88 -44 163 -56 190 -30 11 11 12 0
7 -62 -4 -41 -9 -113 -11 -160 -3 -47 -10 -155 -16 -240 -6 -85 -12 -159 -12
-165 0 -5 7 -11 16 -13 13 -3 15 3 11 30 -6 38 12 403 21 418 3 5 22 -2 42
-15 27 -19 49 -25 87 -25 69 1 130 14 161 34 26 17 26 18 9 37 -9 10 -25 19
-34 19 -9 0 -21 5 -26 10 -13 13 -137 39 -161 35 -10 -2 -21 -4 -26 -4 -4 -1
-16 -16 -27 -33 l-20 -33 0 62 c0 87 5 96 40 78 16 -8 41 -15 56 -15 25 0 133
24 164 37 8 3 19 5 23 4 26 -5 125 78 113 97 -10 17 -90 31 -146 27 -171 -12
-214 -27 -230 -78 -8 -26 -9 -18 -5 42 2 40 6 75 9 78 2 3 14 0 25 -6 72 -39
296 2 382 70 56 44 50 64 -18 62 -7 -1 -13 3 -13 8 0 4 -59 8 -131 8 -134 -1
-228 -18 -230 -42 0 -7 -4 -4 -7 5 -4 10 -6 38 -4 64 4 38 7 44 21 37 23 -11
133 -8 189 7 62 16 122 41 122 52 0 4 5 8 11 8 13 0 65 40 53 40 -5 0 -1 5 9
11 24 14 52 69 35 70 -7 0 -22 3 -33 6 -47 12 -182 5 -213 -11 -17 -9 -41 -18
-54 -20 -13 -3 -23 -5 -23 -6 0 -1 -8 -3 -18 -5 -9 -2 -33 -12 -51 -23 -39
-23 -46 -20 -46 19 0 44 10 62 26 48 32 -26 278 41 334 91 19 17 30 30 26 30
-4 0 0 7 9 16 25 25 48 64 42 70 -10 10 -72 19 -127 17 -83 -2 -284 -77 -298
-111 -5 -13 -8 -8 -13 18 -6 31 -7 28 -8 -19 -1 -60 -6 -64 -14 -12 -7 42 -21
56 -72 75 l-40 15 45 0 c26 1 52 7 58 13 10 10 15 10 22 -2 8 -13 10 -12 10 3
0 15 3 16 21 7 24 -13 66 -6 134 25 28 13 60 26 73 30 12 3 22 11 22 16 0 5 9
9 20 9 11 0 20 5 20 10 0 6 4 10 10 10 14 0 50 32 50 45 0 6 8 20 18 31 10 11
19 26 20 34 0 8 4 25 8 38 6 22 5 23 -50 21 -31 -1 -59 -6 -62 -11 -3 -4 -10
-6 -15 -2 -5 3 -16 0 -24 -6 -8 -7 -15 -9 -15 -5 0 4 -7 2 -15 -5 -12 -10 -15
-10 -15 1 0 8 17 22 38 31 42 20 91 84 102 134 4 19 5 34 1 35 -3 0 -15 2 -26
5 -48 10 -91 11 -102 1 -15 -11 -18 6 -4 31 4 9 11 30 15 46 l7 28 -55 -5
c-32 -3 -71 -15 -93 -28 -23 -14 -33 -17 -26 -8 7 9 16 36 19 61 7 52 -16 111
-64 166 l-29 33 -27 -31z m39 -512 c6 -4 2 -8 -7 -8 -10 0 -18 7 -18 17 0 9 3
12 8 7 4 -5 12 -12 17 -16z m70 -50 c42 19 41 14 -1 -23 -21 -19 -47 -42 -56
-52 -17 -16 -18 -14 -18 35 0 51 0 52 25 40 19 -8 31 -8 50 0z"/>
<path d="M988 765 c-2 -2 -23 -6 -46 -8 -48 -6 -95 -32 -90 -50 5 -14 90 -57
100 -51 4 2 9 0 12 -5 5 -8 68 -14 167 -15 25 -1 58 5 72 13 22 12 26 19 21
45 -10 58 -33 71 -138 73 -52 1 -96 0 -98 -2z"/>
</g>
</svg>
